<?xml version="1.0" encoding="utf-8"?>
<!-- Generator: Adobe Illustrator 23.0.5, SVG Export Plug-In . SVG Version: 6.00 Build 0)  -->
<svg version="1.1" id="Capa_1" xmlns="http://www.w3.org/2000/svg" xmlns:xlink="http://www.w3.org/1999/xlink" x="0px" y="0px"
	 viewBox="0 0 3110 600" style="enable-background:new 0 0 3110 600;" xml:space="preserve">
<style type="text/css">
	.st0{fill:none;}
	.st1{fill:#FFFFFF;}
	.st2{fill:#8CD8FF;}
	.st3{fill:url(#SVGID_1_);}
</style>
<pattern  x="2197" width="504.58" height="408" patternUnits="userSpaceOnUse" id="Nueva_muestra_de_motivo_1" viewBox="0 -408 504.58 408" style="overflow:visible;">
	<g>
		<rect y="-408" class="st0" width="504.58" height="408"/>
		<rect y="-408" class="st1" width="504.58" height="408"/>
		<path class="st2" d="M456.06-41.7c-1.56,7.73-9.29,11.97-15.98,14.75c-47.27,19.59-77.81-1.94-87.65-26.1
			c-4.19-10.29-5.76-20.04-14.29-27.91c-10.64-9.81-27.4-8.67-39.76-5.29c-0.03,0.01-0.06-0.03-0.03-0.05
			c15.12-7.87,35.29-7.25,46.24,7.21c9.69,12.78,6.92,28.47,24.53,43.88c12.13,10.61,28.98,13.95,44.65,12.43
			c15.85-1.54,49.32-13.5,37.05-27.37c-4.25-4.8-10.29-1.44-15.48-1.12c-7.13,0.43-6.88-6.7-11.53-5.97
			c-1.73,0.27-3.15,2.42-4.78,3.1c-5.56,2.32-10.28-3.46-13.67-4.61c-7.29-0.76-9.09,4.08-13.49,5.45c-2,0.63-2.85,0.4-3.98,0.55
			c-6.01,0.75-5.63-1.78-6.44-3.22c-6.14-4.33-19.36-4.11-13.43-14.01c1.01-2.35,2.89-4.5,4.69-5.78c0.5-0.35,2.72-2.09,2.39-1.68
			c-6.51,8.17-9.42,14.03,1.1,15.92c0.7,0.05,1.76,0.11,1.8,0.11c-1.75-5.51,1.27-11.57,3.92-16.04c0.15-0.26,0.61-0.08,0.5,0.21
			c-1.06,2.64-1.87,5.39-2.58,8.15c-0.44,1.7-0.56,3.47-0.48,5.22c0.05,1.06,0.45,1.91,0.92,2.74c0.5,0.1,0.99,0.24,1.46,0.42
			c-0.55-7.1,2.68-15.61,7.05-19.66c0.1-0.09,0.27,0.03,0.19,0.15c-3.77,5.62-6.16,14.42-4.53,21.56c0.76,0.88,0.89,1.21,1.4,1.79
			c-3.51-11.36,10.8-24.59,18.94-29.88c0.01-0.01,0.02,0.01,0.01,0.01c-7.72,7.92-18.97,18.68-16.06,30.62
			c1.43-0.5,2.94-1.29,4.11-1.97c-1.49-4.25,2.09-11.35,5.2-13.53c0.03-0.02,0.08,0.01,0.07,0.05c-0.7,2.18-3.85,8.07-3.57,12.45
			c0.62-0.39,1.26-0.79,1.9-1.16c-1.1-4.91,6.07-14.05,5.93-13.31c-0.77,4.08-3.83,7.4-3.88,12.22c0.74-0.35,1.5-0.64,2.28-0.85
			c-0.37-5.38,5.88-11.24,8.47-16.07c0.01-0.02,0.04,0,0.03,0.02c-3.67,8.27-6.83,11.07-6.52,15.72c1.24-0.08,1.97,0.08,2.71,0.27
			c-0.35-1.71-0.11-3.68,0.2-5.26c0.76-3.85,3.38-6.65,5.89-9.43c0.2-0.22,0.57,0.06,0.41,0.32c-1.42,2.34-2.6,5.22-3.41,7.81
			c-1.42,4.52-0.36,6.57-0.03,7.81c0.57,0.32,1.12,0.67,1.67,1.04c-4.12-9.57,7.96-20.68,6.99-18.4c-2.32,5.45-8.29,12.56-4.95,17.8
			c-2.5-8.82,14.32-26.67,32.34-26.65c0.02,0,0.02,0.03,0,0.03c-18.33,3.56-31.74,18.78-30.1,26.4c0.35,1.62,1.82,2.44,3.21,3.22
			c3.45-1.5,7.06-6.48,13.29,1.07c3.28,3.97,9.12,0.71,13.4,0.48C451.87-56.49,457.46-48.64,456.06-41.7"/>
		<path class="st2" d="M444.01-46.85c-1.53,0.33-2.99,1.25-4.62,0.78c-7.36-2.12-7.87,0.75-10.39-2.22
			c-0.19-0.23,0.04-0.52,0.31-0.4c1.96,0.88,3.23-0.09,5.14-0.09c1.4,0,2.62,0.24,3.92,0.75c3,1.17,5.76-1.03,8.53-0.13
			c8.76,2.84-2.58,13.42-0.31,9.75c0.52-0.85,1.11-1.64,1.61-2.5C450.32-44.56,447.51-47.62,444.01-46.85"/>
		<path class="st2" d="M395.41-52.16c10.06-6.9,14.45-0.15,17.5,1.86c3.13,2.06,5.54-0.43,8.43-1.14c2.14-0.52,2.62,0.17,2.89,2.22
			c0,0.02-0.03,0.02-0.03,0c-0.62-3.48-4.39-0.16-5.54,0.53c-1.03,0.62-2.32,0.89-3.5,0.71c-4.82-0.75-7.07-5.88-12.11-6.12
			c-6.68-0.33-10.23,12.35-22.99,4.87C383.56-48.94,386.46-46.02,395.41-52.16"/>
		<path class="st2" d="M373.7-34.51c-11.04-7.18-13.12-17.21-12.04-15.82c1.89,2.45,3.11,5.36,4.93,7.88
			c2.08,2.89,4.73,5.3,7.16,7.89C373.77-34.54,373.73-34.49,373.7-34.51"/>
		<path class="st2" d="M406.3-74.93c-0.19,0-0.19-0.3,0-0.3C406.49-75.23,406.49-74.93,406.3-74.93"/>
		<path class="st2" d="M355.27-65.62c-2.51-6.03-5.47-11.27-9.87-16.14c-8.34-9.24-9.48-6.89-12.39-9.57
			c-0.17-0.15,0.01-0.49,0.23-0.39c6.32,2.63,7.21,1.06,14.22,9.63C355.14-72.69,355.59-64.88,355.27-65.62"/>
		<path class="st2" d="M236.1-173.99c23.75,11.21,22.4,4.99,32.56,7.75c0.48,0.13,0.61,0.85,0.14,1.09
			c-4.88,2.51-11.7,0.99-16.85-0.15C241.37-167.64,233.8-175.09,236.1-173.99"/>
		<path class="st2" d="M326.58-205.73c0.69-3.53-1.82-5.22-5.49-5.3c-4.56-4.66-3.4-11.24,2.74-14.16
			c2.68-1.28,12.75-4.25,12.64,1.51c-0.01,0.51,0.72,0.48,0.78,0c1.25-10.58-22.51-6.06-22.18,5.77
			c-0.34-7.85,5.56-12.13,8.08-14.31c0.14-0.12,0.02-0.35-0.15-0.35c-5.24-0.19-11.11,7.47-10.14,17.34
			c-2.63-6.93-0.55-15.42,5.31-20.3c1.98-1.64-11.91,2.92-8.28,19.57c-2.45-5.5-2.24-15.4,3.21-20.57c0.33-0.31-0.09-0.76-0.46-0.59
			c-7.3,3.41-8.91,14.66-5.76,22.62c-3.18-5.09-4.34-10.28-3.21-17.19c0.07-0.41-0.43-0.81-0.76-0.44
			c-3.51,3.94-2.97,11.81-0.17,17.71c-0.22-0.33-0.44-0.66-0.65-1.01c-1.88-3.19-3.02-6.43-3.83-10.02c-0.08-0.37-0.71-0.4-0.78,0
			c-0.56,3.4,0.49,7.36,2.05,10.56c-0.87-0.03-1.85,0.26-2.96,0.93c-0.62,0.37-2.54,1.19-1.81,1.19c4.56,0.01,5.92,3.5,8.31,5.87
			c1.23,1.22,4.03,1.06,10.28-0.18c1.11,0.18,7.97-2.24,10.1-0.65c3.24,2.41-4.58,6.37-5.87,6.78c-0.2,0.07-0.18,0.4,0.05,0.38
			c2.6-0.21,6.02-0.98,7.81-2.96c4.76,0.15,13.39,0.25,13.43,6.4c0.03,4.87-4.21,9.08-8.61,10.61
			c-14.97,5.21-30.55-6.43-41.38-15.41c-8.61-7.14-16.11-14.38-27.53-15.97c-2.66-0.37-6.36-0.63-8.98,0.73
			c2.86-12.91,20.76-17.85,30.02-14.42c8.83,3.27,6.98,11.66-2.37,9.14c-0.29-0.08-0.5,0.37-0.21,0.5
			c5.38,2.33,13.09,0.97,10.34-6.69c-4.68-13.02-37.54-8.48-41.39,11.68c-0.1-4.08,0.57-8.16,2.63-11.5
			c0.5-0.82-0.77-1.55-1.28-0.75c-6.02,9.39-5.29,21.21,0.34,31.53c-5.66-8.47-11.29-27.11-2.81-34.64
			c0.81-0.72-0.35-1.79-1.16-1.16c-9.91,7.71-6.12,24.06-0.34,35.43c-5.42-7.85-10.64-25.17-6.56-35.41
			c0.28-0.71-0.89-1.2-1.24-0.52c-4.4,8.76-3.75,18.15-0.4,27.27c1.07,2.91,2.73,7.23,5.03,10.93c-0.07-0.01-0.13-0.03-0.2-0.04
			c-2.27-3.5-5.93-4.18-8.03-17.53c-1.06-6.76-2.37-16.1-0.03-22.72c0.23-0.65-0.83-1.1-1.12-0.47c-4.33,9.53-3.25,21.08-0.46,31.16
			c-4.59-9.65-5.92-21.54-3.44-31.38c0.25-0.98-1.19-1.36-1.5-0.41c-2.38,7.35-2.89,17.41-0.72,26.36
			c-2.8-7.84-4.75-18.68-2.73-27.09c0.16-0.68-0.77-1.1-1.14-0.48c-5.48,9.26-0.93,25.4,3.16,34.71c-0.02-0.01-0.05-0.01-0.08-0.02
			c-6.17-7.3-6.8-18.53-7.16-27.73c-0.02-0.63-0.91-0.76-1.1-0.15c-1.37,4.56-1.76,12.08-0.34,18.66
			c-2.17-5.22-2.98-10.65-3.67-17.03c-0.07-0.64-1.1-0.91-1.22-0.17c-1.05,6.19-0.86,13.71,1.87,19.8
			c-3.4-4.05-3.6-11.88-5.17-17.93c-0.16-0.62-1.09-0.47-1.1,0.15c-0.13,8.04,0.7,11.78,1.88,15.37
			c-4.41-4.43-2.77-10.09-4.78-15.43c-0.52-1.39-2.92,5.65-0.5,12.62c-2.79-3.29-5.61-9.04-9.46-12.68
			c-6.3-5.95-19.4-13.04-28.44-13.17c-0.24,0,18.15,6.77,26.97,15.75c5.95,6.05,9.43,16.59,18.74,17.54
			c2.19,1.89,4.14-1.57,4.14,3.73c0,2.93,3.72,1.6,7.29,2.96c1.23,0.46,7.88,1.55,3.39,6.86c0.76,0.24,1.4,0.34,1.92,0.33
			c3.72,3.98,16.43-3.27,14.54,6.02c-0.19,0.93,0.42,1.95,1.46,1.91c4.06-0.14,7.74,0.66,8.85,1.07c-4.83,1.63-9.9,1.84-9.28,2.06
			c2.42,0.89,4.8,1.17,7.2,0.96c0.41,0.24,4.22-0.86,4.67-1.02c2.75-0.94,6.69-1.54,9.15-3.33c1.37-0.44,6.89-1.44,6.85,1.71
			c-0.01,0.95,0.89,1.5,1.75,1.33c0.68-0.14,4.57-1.04,4.37,0.62c-0.45,3.63-6.73,6.93-10.04,8.3c-1.77,0.73,3.12,1.18,7.83-0.71
			c4.03-0.63,8.64,3.3,5.63,7.36c-1.5,2.03-3.81,3.42-6.16,4.28c-28.33,10.38-53.45-6.4-72.36-30.15
			c-9.76-12.25-16.88-27.53-29.43-37.31c-5.61-4.37-12.33-8.4-19.6-9.04c-11.25-0.98-27.68,2.31-25.16,2.72
			c14.32,2.32,31.89-12.1,58.58,27.68c10.22,15.23,21.15,31.54,36.49,42.08c14.68,10.09,32.57,14.94,49.98,9.31
			c18.84-6.1,13.26-20,5.33-20.02c3.74-4.9,1.9-8.73-4.64-8.04c-0.76-3.18-3.51-4.06-6.81-3.61c-11.72-4.64-17.63-13.44-17.2-22.82
			c1.74-2.79,8.49-1.46,11.64-0.64c17.48,4.56,31.15,29.24,55.52,32.14C344.87-178.33,352.28-208.34,326.58-205.73 M315.15-216.88
			c0.01,0.11,0.03,0.23,0.04,0.34C315.17-216.65,315.16-216.77,315.15-216.88"/>
		<path class="st2" d="M322.08-192.48c0.52,0.02,0.87,0.84,0.3,1.09c-10.2,4.36-19.81-8.21-27.44-12.78
			c-0.32-0.19-0.11-0.76,0.26-0.62c3.99,1.61,7.32,4.07,10.72,6.65C311.16-194.15,315.59-192.79,322.08-192.48"/>
		<path class="st2" d="M268.22-219.64c-1.96-0.87-6.83-1.3-5.33-1.86c5.68-2.14,19.55,7.92,16.32,7.68
			C275.68-214.1,273.88-217.13,268.22-219.64"/>
		<path class="st2" d="M333.32-198.64c-0.85-0.57-1.88-0.84-2.9-0.81c-1.17,0.04-1.46,0.86-2.35,1.36c-0.5,0.28-1.09-0.08-1.11-0.64
			c-0.04-1.41,1.73-2.13,2.89-2.26c5.54-0.59,8.89,6.4,3.93,8.84C332.57-191.54,336.78-196.32,333.32-198.64"/>
		<path class="st2" d="M143.33-82.38c0.85-2.67,3.1-6.43,5.84-7.05c0.35-0.08,0.23-0.54-0.08-0.57c-5.36-0.66-8.09,6.72-8.38,7.96
			c-0.82,0.22-1.59,0.53-2.29,0.93c0.75-3.1,3.16-6.69,5.16-9.08c0.28-0.34-0.14-0.74-0.48-0.48c-3.38,2.64-7.57,7.6-7.68,12.36
			c-0.18,0.26-0.33,0.54-0.48,0.82c-0.53-6.02,2.27-13.08,6.31-16.7c0.38-0.34-0.11-0.94-0.53-0.69
			c-9.13,5.46-11.21,23.53-3.79,27.35c4.23,3.4,10.37-0.8,9.26-4.53c-0.94-3.16-3.99-4.43-6.76-2.38c-0.53,0.39-0.24,1.34,0.48,1.13
			c3.35-0.99,5.6,6.1,0.17,4.69c-0.07-0.08-0.15-0.17-0.27-0.24c-1.17-0.72-2.1-1.63-2.83-2.66c-1.1-3.2,0.69-7.32,4.43-7.87
			c0.22,0.08,0.44,0.05,0.66-0.08c4.7-0.35,9.95,3.12,11.18,7.74c2.67,10-8.53,19.1-17.79,15.79c-3.6-2.93-14.52-8.24-12.23-15.34
			c5.13-1.4,8.51-6.3,6.01-12.13c0.56-1.7,1.59-3.04,2.83-4.78c0.4-0.56,0.41-1.04,0.7-1.63c0.12-0.26-0.18-0.53-0.41-0.31
			c-0.45,0.44-0.95,0.62-1.37,1.11c-1.79,2.1-2.09,2.48-2.76,3.79c-0.07-0.1-0.14-0.2-0.22-0.29c0.9-2.51,2.57-4.56,4.28-6.59
			c0.25-0.29-0.05-0.66-0.39-0.51c-2.51,1.11-4.44,3.07-5.63,5.49c-0.15-0.1-0.32-0.2-0.48-0.28c0.81-1.62,1.41-2.8,6.07-8
			c0.3-0.34-0.07-0.82-0.48-0.62c-4.47,2.27-7.19,6.45-7.65,7.99c-0.52-0.05-1.02-0.05-1.54,0.05c0.98-2.5,2.77-4.78,5.01-6.21
			c0.37-0.24,0.05-0.75-0.34-0.58c-4.9,2.17-6.8,6.82-6.8,7.78c-2.07,1.45-3.99,4.11-3.14,6.14c1.97,4.75,9.62,1.34,5.96-1.38
			c-0.57-0.42-1.34,0.27-1.15,0.89c0.5,1.62-2.65,0.66-2.53-0.32c0.42-3.61,5.31-5.36,7.17-1.71c2.46,4.84-2.64,12.93-8.19,8.9
			c-7.6-5.52,0.35-20.39,7.06-23.22c0.47-0.2,0.31-0.87-0.22-0.78c-8.6,1.57-14.66,14.38-11.82,22.3c-0.11,0.02-0.22,0.06-0.32,0.11
			c-0.64-0.95-1.42-1.78-2.33-2.47c0.57-1.19,0.33-3,0.64-4.19c0.55-2.14,1.28-4.22,1.77-6.36c0.13-0.59-0.63-0.91-0.96-0.41
			c-1.86,2.82-3.24,6.33-3.52,9.76c-0.39-0.17-0.79-0.33-1.21-0.45c0.17-3.92,1.73-6.91,3.42-10.49c0.25-0.54-0.46-0.95-0.79-0.46
			c-1.98,2.86-4.96,6.74-4.85,10.51c-0.58-0.05-0.85-0.05-1.27-0.04c0.25-1.49,0.21-3.03,0.79-4.5c0.81-2.04,1.93-4.28,3.3-6
			c0.18-0.24-0.07-0.67-0.36-0.46c-5.46,3.98-6.47,8.78-6.01,11.24c-0.43,0.1-0.85,0.22-1.25,0.37c0.54-3.82,0.93-7.58,3.74-10.72
			c0.5-0.55-0.23-1.23-0.79-0.79c-3.24,2.51-5.6,8.5-5.49,12.93c-0.11,0.09-0.2,0.19-0.3,0.28c-0.86-6.51,1.97-16.21,8.71-17.39
			c0.53-0.09,0.4-0.95-0.12-0.93c-11.5,0.49-13.42,19.89-9.84,25.03c1.44,3.66,5.33,6.16,8.44,2.16c2.06-2.65,1.36-5.82-2.39-5.13
			c-0.79,0.14-0.61,1.49,0.19,1.41c2.91-0.3,0.7,2.38-0.63,3c-3.19,1.49-4.38-4.78-2.31-6.47c3.47-2.84,11.22-0.91,12.14,3.84
			c1.44,7.46-7.44,14.7-14.59,12.87c-3.67-0.94-6.63-3.29-9.15-6.04c-7.74-8.41-17.23-28.67-31.6-20.88
			c-0.31,0.17-0.1,0.68,0.24,0.57c23.21-7.26,26.22,37.89,49.16,27.38c-4.96,6.23-3.4,16.8,6.73,17.05
			c10.58,0.26,11.26-7.32,8.09-10.37c-2.19-2.11-4.45-1.74-7.25-1.41c-0.47,0.05-0.47,0.8,0,0.74c5.85-0.69,9.19,6.69,2.77,8.37
			c-3.49,0.91-9.33,0.49-10.46-3.81c-1.1-4.2,1.86-10.45,6.17-11.6c4.55-1.22,9.58-0.54,13.95,1.12c11.44,4.33,16.54,17.71,12.42,29
			c-6.85,18.78-43.95,24.51-70.2-28.95c-4.78-9.73-10.82-18.9-21.12-23.47c-9.22-4.1-17.91-4.44-27.52-1.7
			c-0.29,0.08-0.17,0.52,0.13,0.45c12.84-2.7,27.23,0.69,36.35,10.42c9.41,10.05,13.25,24.05,21.68,34.96
			c9.63,12.47,24.11,25.24,41.03,24.25c25.14-1.47,28.72-27.73,20.63-38.32c7.79,1.2,15.6-5.38,16.98-13.64
			C157.24-73.13,151.28-82.39,143.33-82.38"/>
		<path class="st2" d="M102.63-63.84c1.67,0.13-1.25,4.55-7.84,0.78c-5.29-3.03-8.73-10.44-7.9-9.48
			C97.67-60.17,98.5-64.17,102.63-63.84"/>
		<path class="st2" d="M149.59-67.42c0.23-1.01-0.07-1.91,0.34-2.87c0.41-0.96,3.14,1.23-0.34,6.76c-1.33,2.12-3.83,4.6-6.48,4.65
			c-0.16,0-0.24-0.2-0.13-0.31C145.53-61.62,148.58-63.01,149.59-67.42"/>
		<path class="st2" d="M134.76-31.26c-0.02,0.04-0.09,0.02-0.09-0.02c-0.05-4.48,2.29-10.93-1.93-18.41
			C131.71-51.53,140.32-40.36,134.76-31.26"/>
		<path class="st2" d="M132.02-41.1c-0.98-8.43-4.28-9.26-5.58-12.59c-0.38-0.96,1.75-1.1,5.05,5.46c1.18,2.34,1.53,4.66,1.13,7.21
			C132.56-40.65,132.06-40.79,132.02-41.1"/>
		<path class="st2" d="M128.13-46.87c-4.46-8.92-8.35-7.87-10.38-9.44c-1.16-0.9,2.11-2.04,6.76,2.05c2.16,1.89,3.32,4.47,4.4,7.06
			C129.09-46.75,128.34-46.44,128.13-46.87"/>
		<path class="st2" d="M102.87-28.49c-15.89-1.69-24.51-21.02-29.35-29.99c-2.87-5.32-6.34-10.24-9.32-15.49
			c-0.02-0.04,0.02-0.06,0.05-0.04c10.57,8.44,13.22,24.48,25.27,36.78c3.74,3.82,8.79,5.78,13.59,7.86
			C103.53-29.19,103.33-28.44,102.87-28.49"/>
		<path class="st2" d="M95.43-42.66c-4.96-1.58-8.74-6.14-11.84-10.09c-7.61-9.69-7.89-15.74-7-14.34
			c2.57,4.01,4.59,8.28,7.37,12.18c3.34,4.69,7.64,7.83,11.84,11.63C96.06-43.03,95.78-42.55,95.43-42.66"/>
		<path class="st2" d="M82.46-79.12c-5.92-5.8-6.16-13.85-22.38-15.4c-0.29-0.03-0.29-0.43,0-0.45c9.99-0.59,19.87,5.56,23.07,15.44
			C83.29-79.12,82.75-78.84,82.46-79.12"/>
		<path class="st2" d="M93.89-96.29c-3.07,2.51-5.41,6.35-4.83,10.43c0.04,0.31-0.41,0.45-0.48,0.13c-0.81-3.75,0.22-6.68,2.53-9.66
			c5.35-6.91,11.03-6.72,9.81-5.45C99.09-98.92,96.01-98.02,93.89-96.29"/>
		<path class="st2" d="M445.22-355.98c-4.08-3.61-8.2-7.73-13.59-9.22c-5.53-1.53-10.59,2.06-12.05,7.27
			c-1.44,5.16,1.04,10.15,3.75,14.39c7.81,12.22,15.38,10.04,16.88,9.6c5.07-1.48,7.2,2.18,7.48,3.75c2.82-1.57,6.55-1.13,9.8,1.04
			c8.35,5.57,10.12,23.14-16.16,31.25c-39.2,12.09-58.55-40.53-79.21-53c-5.64-3.41-12.58-5.86-19.24-5.31
			c-8.26,0.69-11.08,10.18-7.84,16.98c3.04,6.38,12.21,8.58,18.31,5.84c3.7-1.66,6.52-6.52,2.49-9.42
			c-3.19-2.29-8.42-2.82-12.21-2.5c-0.31,0.03-0.36-0.45-0.07-0.53c4.89-1.45,11.82-1,15.22,3.35c3.11,3.98-0.63,9.91-4,11.75
			c-9.77,5.34-23.63-2.64-24.52-13.61c-0.44-5.39,2.35-11.68,7.16-14.42c4.63-2.63,10.57-1.86,15.48-0.61
			c28.63,7.27,39.04,50.27,69.26,58.5c9.71,2.64,20.52-0.07,28.84-5.38c5.24-3.34,9.81-8.8,7.84-15.31
			c-1.41-4.64-5.5-8.22-13.75-2.38c0.69-1.42,0.81-3.39,0.01-4.72c-3.69-6.1-11.91,6.57-20.26,2.81c-1.38-0.62-2.55-1.59-3.97-2.13
			c-2.79-1.07-5.53,1.19-7.06,1.84c0.3,1.53-0.29,3.1-2.32,4.61c-0.1,0.08-0.29-0.02-0.27-0.15c0.45-3.33,3.02-5.11-5.74-9.86
			c-4.29-2.33-9.5-3.11-13.97-5.18c-12.54-5.79-19.31-20.9-18.14-22.39c1.66,3.61,10.52,15.97,19.45,20.27
			c-4.43-4.6-6.79-10.99-6.71-17.47c0.01-0.56,0.83-0.55,0.86,0c0.42,7.56,4.4,12.71,9.53,17.33c-3.23-5.35-4.6-9.76-4.51-16.84
			c0.01-0.53,0.79-0.53,0.82,0c0.23,4.18,1.87,8.51,3.69,12.24c1.69,3.47,4.54,5.78,6.77,8.7c0.85,0.36,1.81,0.8,2.8,1.32
			c-4.46-5.28-6.78-11.05-8.35-17.73c-0.16-0.7,0.89-0.99,1.08-0.3c1.22,4.61,3.77,9.1,6.44,13.03c4.38,6.44,8.18,7.55,10.22,8.95
			c0.29-0.14,0.59-0.26,0.89-0.37c-1.56-1.06-2.99-2.39-4.25-3.55c-2.99-2.74-5.02-5.86-6.89-9.42c-0.21-0.4,0.34-0.89,0.66-0.51
			c9.4,11.05,10.49,9.68,14.5,13c4.41,0.52,6.01,5.02,11.57,2.41c-6.43-1.65-13.14-5.64-18.03-9.6c-6.18-5.01-9.53-11.77-9.66-19.65
			c-0.01-0.4,0.63-0.5,0.71-0.1c1.7,8.6,6.54,15.84,14.69,20.77c-11.41-10.48-11.56-25.89-4.08-33.14
			c4.57-4.43,10.78-4.14,16.42-2.46c0.33,0.1,0.28,0.67-0.08,0.62c-20.9-2.75-23.4,17.71-13.36,30.07c2.03,2.49,4.58,4.29,7.24,6.03
			c-10.3-9.39-15.76-27.16-1.19-32.61c9.63-3.6,17.94,5.54,24.33,11.24c6.83,6.1,15.28,7.96,19.47,7.07c4.71-1,4.96-7.51,0.26-8.73
			c-0.24-0.06-0.2-0.47,0.06-0.44C481.6-357.78,469.89-334.17,445.22-355.98"/>
		<path class="st2" d="M154.5-350.47c-6.59-1.32-13.12-3.65-19.96-3.03c-3.1,0.28-10.36,1.63-11.76,5.36
			c-1.91-0.68-3.96-0.67-5.28-0.37c2.51-3.59,6.12-5.7,10.65-6.66c4.76-1.01,10.47-1.24,15.28-0.34c0.34,0.06,0.49-0.44,0.14-0.52
			c-5.72-1.33-11.43-2.15-17.25-0.55c-4.98,1.38-9.73,4.27-11.5,9.35c-0.48,0.38-0.95,0.83-1.34,1.37
			c-0.34-6.61,7.15-14.17,25.13-13.95c0.37,0,0.36-0.54,0-0.57c-10.66-0.96-22.09,0.46-26.22,10.34
			c0.57-8.22,14.65-14.28,22.19-14.84c0.14-0.01,0.14-0.22,0-0.22c-15.5,0.17-23.77,9.1-24.19,15.95
			c-1.8-8.74,6.55-16.43,14.82-19.42c0.49-0.18-1.17-0.11-1.69,0.01c-8.14,1.87-18.32,11.74-14.67,20.76
			c-3.19-0.5-6.69,1.56-5.72,4.87c-5.46-5.73-1.74-16.42,6.36-19.68c0.42-0.17-0.63-0.5-1.06-0.32c-5.1,2.14-8.83,6.76-9.26,12.37
			c-0.16-5.28,3.13-13.42,9.52-15.64c0.29-0.1,0.18-0.54-0.13-0.47c-9.19,2.24-13.53,15.72-9.68,22.17
			c0.96,1.61,2.72,3.58,4.69,4.18c2.71,1.53,5.66,0.84,6.14-1.79c0.36-1.99-1.96-1.78-3.04-1.06c-0.43,0.29-0.14,0.86,0.33,0.79
			c2.91-0.43,0.27,2.69-1.41,1.17c-3.76-3.41-0.01-6.21,3.88-4.93c0.74,0.24,1.27,0.61,1.64,1.06c2.41,4.39-2.88,9.28-8.49,8.55
			c-7.18-0.95-10.18-13.58-8.76-20.6c0.06-0.3-0.37-0.42-0.46-0.13c-1.25,4.25-1.25,9.66,0.42,14.21
			c-4.05-7.54-3.58-19.15,2.56-24.95c0.2-0.19-0.09-0.47-0.3-0.3c-11.81,10.14-5.97,31.73,5.42,33.98
			c-1.54,2.88,0.29,6.22,3.33,5.54c1.97-0.44,2.64-2.37,1.01-3.72c-0.47-0.39-1.13,0.09-0.85,0.65c1.36,2.7-4.7,1.06-1.56-1.86
			c1.46-1.36,3.85-0.72,5.07,0.69c3.03,3.51-1.78,10.44-11.01,4.08c-9.77-6.74-12.58-18.92-9.72-30.08c0.07-0.26-0.32-0.37-0.4-0.11
			c-2.85,9.28-2.69,20.68,4.39,28.14c10.38,10.92,19.31,7.38,19.46,2.55c3.03,1.23,8.47,1.88,11.81-0.58
			c-3.34,2.46-4.29,9.09-0.88,12.53c4.66,4.7,13.48,0.49,11.87-5.36c-0.7-4.68-6.51-4.77-7.15-2.16c-0.3,1.23-0.12,2.34,0.7,3.2
			c-0.28-5.11,5.71-3.4,5.13,0.48c-1.06,3.55-6.81,5.22-9.31,2.01c-1.81-2.32-0.98-6.01,0.58-8.17c4.73-6.58,16.36-2.09,17.7,3.48
			c1.77,7.41-3.05,12.56-9.7,14.55c-10.25,3.07-19.65-2.33-26.03-10.3c-0.19-0.24-0.6,0.08-0.42,0.33
			c3.77,5.31,8.54,10.17,14.94,12.07c1.58,8.2-8.25,9.2-16.11,5c-18.3-9.78-21.17-20.3-31.08-33.53
			c-5.44-7.27-11.57-15.94-26.45-18.84c-10.61-2.07-23.95-0.65-29.36,7.98c0,0,13.13-12.57,36.2-2.68
			c23.12,9.91,21.05,35.36,49.49,49.8c10.01,5.08,22.49,2.3,19.2-6.35c7.99,1.65,22.58-3.96,22.75-14.58
			c0.15-9.44-9.37-13.99-16.93-12.38c4.53-4.9,2.45-11.8-3.34-15.22c6.8-7.81,20.72-3.11,29.65-2.93
			C154.65-350.1,154.7-350.43,154.5-350.47 M117.52-329.87c-3.4-0.03-6.34-1.02-6.34-1.02c-0.23-2.12-1.82-3.82-3.68-4.68
			c1.91-0.79,3.94-2.07,4.86-3.76c1.81,5.41,8.71,5.58,11.42,2.38c4.1-4.84-8.2-10.99-6.61-3.43c0.08,0.37,0.79,0.13,0.82-0.46
			c0.14-3.39,6.42-0.93,4.19,2.07c-1.56,2.1-6.19,2.61-7.41-0.08c-2.04-4.51,1.28-7.62,5.1-7.77
			C128.75-346.27,133.38-330.22,117.52-329.87"/>
		<path class="st2" d="M103-308.46c0.63,0.21,0.47,1.05-0.15,1.11c-12.22,1.29-20.18-22.53-31.52-34.2
			c-0.11-0.11,0.04-0.32,0.17-0.22c5.96,4.2,9.47,10.91,13.17,17.02C93.67-309.89,99.91-309.48,103-308.46"/>
		<path class="st2" d="M133.84-326.69c-0.28-0.19-0.1-0.59,0.22-0.53c1.96,0.35,3.35,1.92,4.07,3.68c0.89,2.17,0.25,4.29-0.32,6.42
			c-0.03,0.1-0.17,0.06-0.16-0.04c0.29-1.67,0.24-3.65-0.1-5.31C137.1-324.64,135.5-325.53,133.84-326.69"/>
		<path class="st2" d="M124.61-310.56c-4.67,2.01-9.45-2.93-11.46-6.54c-0.06-0.1,0.09-0.18,0.15-0.09
			c1.35,1.84,3.15,3.39,5.11,4.56c2,1.2,3.98,1.02,6.13,1.56C124.76-311.01,124.84-310.65,124.61-310.56"/>
		<path class="st2" d="M119.7-315.03c-0.12-0.17,0.14-0.37,0.29-0.22c2.72,2.78,6.04,2.09,7.72,2.79c0.65,0.27-0.48,1.37-4.72,0.01
			C121.54-312.91,120.53-313.8,119.7-315.03"/>
	</g>
</pattern>
<pattern  id="SVGID_1_" xlink:href="#Nueva_muestra_de_motivo_1" patternTransform="matrix(1 0 0 -1 -54.422 960)">
</pattern>
<rect y="-1" class="st3" width="3110" height="600"/>
</svg>
